<?xml version="1.0" encoding="UTF-8" standalone="no"?>
<!-- Created with Inkscape (http://www.inkscape.org/) -->

<svg
   xmlns:dc="http://purl.org/dc/elements/1.1/"
   xmlns:cc="http://creativecommons.org/ns#"
   xmlns:rdf="http://www.w3.org/1999/02/22-rdf-syntax-ns#"
   xmlns:svg="http://www.w3.org/2000/svg"
   xmlns="http://www.w3.org/2000/svg"
   xmlns:sodipodi="http://sodipodi.sourceforge.net/DTD/sodipodi-0.dtd"
   xmlns:inkscape="http://www.inkscape.org/namespaces/inkscape"
   width="210mm"
   height="297mm"
   viewBox="0 0 744.09448819 1052.3622047"
   id="svg2"
   version="1.1"
   inkscape:version="0.91 r13725"
   sodipodi:docname="LogoVETORIZADO.svg">
  <defs
     id="defs4" />
  <sodipodi:namedview
     id="base"
     pagecolor="#ffffff"
     bordercolor="#666666"
     borderopacity="1.0"
     inkscape:pageopacity="0.0"
     inkscape:pageshadow="2"
     inkscape:zoom="20.48"
     inkscape:cx="599.20133"
     inkscape:cy="481.69709"
     inkscape:document-units="px"
     inkscape:current-layer="layer2"
     showgrid="false"
     inkscape:window-width="1280"
     inkscape:window-height="746"
     inkscape:window-x="-8"
     inkscape:window-y="-8"
     inkscape:window-maximized="1" />
  <metadata
     id="metadata7">
    <rdf:RDF>
      <cc:Work
         rdf:about="">
        <dc:format>image/svg+xml</dc:format>
        <dc:type
           rdf:resource="http://purl.org/dc/dcmitype/StillImage" />
        <dc:title></dc:title>
      </cc:Work>
    </rdf:RDF>
  </metadata>
  <g
     inkscape:label="Camada 1"
     inkscape:groupmode="layer"
     id="layer1">
    <path
       style="fill:#000000"
       d=""
       id="path3519"
       inkscape:connector-curvature="0" />
    <path
       style="fill:#000000"
       d=""
       id="path3517"
       inkscape:connector-curvature="0" />
    <path
       style="fill:#000000"
       d=""
       id="path3515"
       inkscape:connector-curvature="0" />
    <path
       style="fill:#000000"
       d=""
       id="path3513"
       inkscape:connector-curvature="0" />
    <path
       style="fill:#000000"
       d=""
       id="path3511"
       inkscape:connector-curvature="0" />
    <path
       style="fill:#000000"
       d=""
       id="path3509"
       inkscape:connector-curvature="0" />
    <path
       style="fill:#000000"
       d=""
       id="path3507"
       inkscape:connector-curvature="0" />
    <path
       style="fill:#000000"
       d=""
       id="path3505"
       inkscape:connector-curvature="0" />
    <path
       style="fill:#000000"
       d=""
       id="path3503"
       inkscape:connector-curvature="0" />
    <path
       style="fill:#000000"
       d=""
       id="path3501"
       inkscape:connector-curvature="0" />
    <path
       style="fill:#000000"
       d=""
       id="path3499"
       inkscape:connector-curvature="0" />
    <path
       style="fill:#000000"
       d=""
       id="path3497"
       inkscape:connector-curvature="0" />
    <rect
       style="opacity:1;fill:#ffffff"
       id="rect4389"
       width="164.62349"
       height="164.62334"
       x="493.5578"
       y="493.60175"
       inkscape:export-filename="C:\Users\Bernardo\Documents\Jackpot Flights\LogoMASTERIZADO.png"
       inkscape:export-xdpi="1119.6459"
       inkscape:export-ydpi="1119.6459" />
  </g>
  <g
     inkscape:groupmode="layer"
     id="layer2"
     inkscape:label="Camada 2">
    <path
       style="opacity:1;fill:#000000"
       d="m 616.00178,589.96198 c 0.33709,-0.51806 2.08374,-3.53155 2.4558,-4.23698 0.22673,-0.42993 0.41227,-0.87827 0.41227,-0.9963 0,-0.24736 -0.26581,-0.52319 -0.50421,-0.52319 -0.0898,0 -0.56062,0.33172 -1.04633,0.73712 -1.51812,1.26715 -2.71894,1.72926 -4.46229,1.71725 -2.15782,-0.0158 -3.86325,-0.80879 -5.18731,-2.41475 -1.55302,-1.88363 -1.97575,-4.46578 -1.10848,-6.77093 0.44266,-1.17658 1.60092,-2.57125 2.72391,-3.27986 1.59226,-1.00469 3.85837,-1.26126 5.78587,-0.65504 0.44862,0.14107 0.84128,0.23087 0.8726,0.19957 0.0312,-0.0312 -0.13207,-0.30051 -0.3631,-0.5982 -0.23104,-0.2977 -0.50362,-0.70907 -0.60575,-0.91416 -0.71251,-1.43084 -0.91517,-3.67456 -0.47841,-5.29654 0.16807,-0.6244 0.69754,-1.59041 1.20727,-2.20291 2.32919,-2.7988 6.45852,-3.27584 9.31888,-1.0766 1.26675,0.97395 2.14085,2.31192 2.5272,3.86833 0.17729,0.71409 0.1557,2.32716 -0.0414,3.07634 -0.21645,0.82359 -0.77832,1.96375 -1.35256,2.74471 -0.26174,0.35597 -0.46262,0.66048 -0.44642,0.67668 0.0158,0.0158 0.27731,-0.0977 0.5802,-0.25321 0.69127,-0.3548 1.35656,-0.46352 2.84085,-0.4642 1.44608,-5e-4 2.09271,0.11385 2.87895,0.50978 2.69914,1.35927 4.11567,4.05207 3.74168,7.11295 -0.18585,1.52181 -0.65673,2.42327 -1.944,3.7224 -1.4281,1.44126 -2.44838,1.89612 -4.40314,1.96301 -1.95453,0.0668 -3.23327,-0.38556 -4.80094,-1.69868 -0.90461,-0.75773 -1.1616,-0.84433 -1.4046,-0.47347 -0.14153,0.21578 -0.1368,0.25947 0.079,0.7306 0.12623,0.27558 0.80116,1.49186 1.49999,2.70286 0.69885,1.21097 1.27062,2.2246 1.27062,2.25247 0,0.0279 -2.29111,0.0506 -5.09133,0.0506 l -5.09132,0 0.13658,-0.2097 z"
       id="path4371"
       inkscape:connector-curvature="0"
       inkscape:export-filename="C:\Users\Bernardo\Documents\Jackpot Flights\LogoMASTERIZADO.png"
       inkscape:export-xdpi="1119.6459"
       inkscape:export-ydpi="1119.6459" />
    <path
       style="opacity:1;fill:#000000"
       d="m 559.64326,590.12469 c 0,-0.0258 0.3496,-0.54495 0.77688,-1.1535 1.3396,-1.90796 2.031,-3.454 2.03735,-4.55574 0.002,-0.32609 -0.018,-0.61528 -0.0464,-0.64264 -0.0274,-0.0275 -0.39912,0.12308 -0.82618,0.33446 -1.13638,0.56228 -2.29515,0.78093 -3.85279,0.72693 -1.00131,-0.0347 -1.34129,-0.086 -1.95675,-0.29558 -1.35506,-0.46134 -2.38154,-1.24819 -3.16177,-2.42366 -0.56488,-0.85106 -0.71154,-1.33818 -0.77132,-2.56234 -0.0725,-1.48322 0.0709,-2.54567 0.44336,-3.28896 0.67905,-1.35463 2.76444,-4.06761 6.32792,-8.23217 0.74581,-0.87162 2.07574,-2.44521 2.9554,-3.49686 0.87964,-1.05165 1.68206,-1.9869 1.78312,-2.07839 0.17956,-0.16245 0.21645,-0.1296 1.62201,1.44596 5.12129,5.74106 8.92874,10.40808 9.71262,11.90538 0.54355,1.03824 0.65806,1.56769 0.65686,3.03766 -10e-4,2.0459 -0.30638,2.87084 -1.53062,4.14324 -0.72446,0.75294 -1.43179,1.23633 -2.19029,1.49686 -0.74137,0.25465 -2.35092,0.37795 -3.71338,0.28444 -1.06348,-0.0729 -1.12644,-0.0898 -2.07891,-0.55282 -0.54022,-0.26267 -0.99972,-0.47754 -1.02109,-0.47754 -0.0225,0 -0.0389,0.30699 -0.0389,0.68222 0,1.30028 0.51937,2.48828 2.00434,4.5848 0.36315,0.51273 0.69246,0.98467 0.73179,1.04875 0.0567,0.0925 -0.74597,0.11655 -3.89592,0.11655 -2.1821,0 -3.96742,-0.0203 -3.96742,-0.0471 z"
       id="path4369"
       inkscape:connector-curvature="0"
       inkscape:export-filename="C:\Users\Bernardo\Documents\Jackpot Flights\LogoMASTERIZADO.png"
       inkscape:export-xdpi="1119.6459"
       inkscape:export-ydpi="1119.6459" />
    <path
       style="opacity:1;fill:#ff0000"
       d="m 538.71403,587.8184 c -2.6053,-3.60171 -8.06877,-11.29862 -8.12927,-11.4525 -0.0319,-0.0812 0.96298,-1.62366 2.21087,-3.42773 4.67267,-6.75531 7.38533,-10.59706 7.48265,-10.59706 0.11385,0 0.29899,0.25718 2.64303,3.67065 3.51531,5.11913 6.77225,9.97923 6.77256,10.1062 5e-4,0.21037 -9.24696,13.77685 -9.39089,13.77685 -0.0479,0 -0.76284,-0.93437 -1.58895,-2.07641 z"
       id="path4385"
       inkscape:connector-curvature="0"
       inkscape:export-filename="C:\Users\Bernardo\Documents\Jackpot Flights\LogoMASTERIZADO.png"
       inkscape:export-xdpi="1119.6459"
       inkscape:export-ydpi="1119.6459" />
    <path
       style="opacity:1;fill:#ff0000"
       d="m 589.52146,587.88432 c -0.92851,-1.10578 -2.84081,-3.36853 -4.24958,-5.02834 -5.07656,-5.98129 -7.24128,-8.84682 -7.7937,-10.31685 -1.19252,-3.17343 -0.18968,-6.5581 2.53786,-8.56604 0.9923,-0.73049 2.00264,-1.09868 3.41816,-1.24567 3.19115,-0.33139 5.92202,1.09048 7.34404,3.82381 0.30427,0.58481 0.5727,1.06332 0.59652,1.06332 0.0238,0 0.32812,-0.50747 0.67622,-1.12767 1.07725,-1.91942 2.58428,-3.10125 4.61774,-3.62131 1.74515,-0.44633 3.45805,-0.26597 5.16274,0.5436 1.20962,0.57447 2.7065,2.07754 3.3347,3.34845 l 0.45614,0.92284 0,2.1753 c 0,2.10089 -0.0135,2.20198 -0.36501,2.95533 -0.5562,1.18858 -1.6851,2.81502 -3.66789,5.28441 -2.72457,3.39323 -10.04584,11.79932 -10.2766,11.79932 -0.0567,0 -0.86283,-0.90473 -1.79134,-2.01049 z"
       id="path4387"
       inkscape:connector-curvature="0"
       inkscape:export-filename="C:\Users\Bernardo\Documents\Jackpot Flights\LogoMASTERIZADO.png"
       inkscape:export-xdpi="1119.6459"
       inkscape:export-ydpi="1119.6459" />
    <path
       style="opacity:1;fill:#000000"
       d="m 276.43167,554.85579 0,-176.18974 247.78431,0 247.78431,0 0,176.18974 0,176.18974 -247.78431,0 -247.78431,0 0,-176.18974 z m 265.87521,91.56942 c 5.32751,-0.56088 5.55622,-0.71994 11.46342,-7.97132 6.01024,-7.37791 11.53959,-14.34247 25.57973,-32.21924 9.93028,-12.64383 10.02757,-12.75275 11.55955,-12.93887 0.84974,-0.10328 9.76716,-0.286 19.8165,-0.40615 10.04935,-0.12015 21.45973,-0.37751 25.35641,-0.57193 l 7.08487,-0.35349 2.76,-1.35646 c 3.14063,-1.5435 7.43846,-5.51862 9.11082,-8.42672 2.91823,-5.0745 1.48007,-11.0552 -3.87259,-16.10465 -3.27652,-3.09089 -6.27934,-4.55213 -10.422,-5.07159 -1.74326,-0.2187 -13.90457,-0.544 -27.02518,-0.7231 l -23.8556,-0.32567 -0.81954,-0.95276 c -0.45074,-0.52403 -5.73359,-7.20896 -11.73967,-14.85542 -16.54612,-21.06527 -26.89429,-33.88872 -28.56422,-35.39678 -1.82531,-1.64837 -3.85414,-2.16027 -9.60786,-2.42415 -4.6692,-0.2142 -6.2937,0.29331 -7.22684,2.25761 -0.44975,0.94675 -0.43245,1.352 0.13522,3.16955 1.24592,3.98855 4.60427,12.6342 11.69872,30.11679 3.92634,9.67554 7.1388,17.68799 7.1388,17.80542 0,0.11745 -7.46019,0.21352 -16.5782,0.21352 l -16.5782,0 -1.83645,-3.44922 c -4.93979,-9.27797 -5.91215,-10.92927 -7.42941,-12.61681 -1.94697,-2.16551 -3.62444,-2.74556 -7.17188,-2.47993 -3.00172,0.22478 -4.33233,0.82119 -4.79533,2.1494 -0.40761,1.16926 0.47385,6.39437 3.87427,22.9653 l 2.07484,10.11117 -2.43479,11.80001 c -1.33914,6.49001 -2.77644,13.76761 -3.19404,16.17246 -0.74169,4.27122 -0.74317,4.39416 -0.0648,5.30966 0.91967,1.24121 2.70329,1.8232 5.65855,1.84631 3.33554,0.0261 5.02508,-0.51334 6.10767,-1.9501 0.49576,-0.65797 2.66319,-4.46841 4.81649,-8.46765 2.53975,-4.71699 4.2232,-7.43535 4.79223,-7.73827 0.67104,-0.35723 4.57186,-0.44485 16.60092,-0.37289 8.64808,0.0518 15.8209,0.19125 15.93963,0.31025 0.1188,0.1188 -1.22748,3.64268 -2.9916,7.83065 -3.97393,9.43414 -11.78377,29.09082 -14.13677,35.5811 -2.0504,5.6556 -2.22428,7.193 -0.96503,8.53342 1.2555,1.33641 3.93609,1.61176 9.74133,1.00057 z"
       id="path4355"
       inkscape:connector-curvature="0"
       inkscape:export-filename="C:\Users\Bernardo\Documents\Jackpot Flights\LogoMASTERIZADO.png"
       inkscape:export-xdpi="251.01349"
       inkscape:export-ydpi="251.01349" />
  </g>
</svg>
