<?xml version="1.0" encoding="UTF-8" standalone="no"?>
<!-- Created with Inkscape (http://www.inkscape.org/) -->

<svg
   xmlns:dc="http://purl.org/dc/elements/1.1/"
   xmlns:cc="http://creativecommons.org/ns#"
   xmlns:rdf="http://www.w3.org/1999/02/22-rdf-syntax-ns#"
   xmlns:svg="http://www.w3.org/2000/svg"
   xmlns="http://www.w3.org/2000/svg"
   xmlns:sodipodi="http://sodipodi.sourceforge.net/DTD/sodipodi-0.dtd"
   xmlns:inkscape="http://www.inkscape.org/namespaces/inkscape"
   width="210mm"
   height="297mm"
   viewBox="0 0 744.09448819 1052.3622047"
   id="svg2"
   version="1.1"
   inkscape:version="0.91 r13725"
   sodipodi:docname="PostVETORIZADO.svg">
  <defs
     id="defs4" />
  <sodipodi:namedview
     id="base"
     pagecolor="#ffffff"
     bordercolor="#666666"
     borderopacity="1.0"
     inkscape:pageopacity="0.0"
     inkscape:pageshadow="2"
     inkscape:zoom="1.4"
     inkscape:cx="180.09423"
     inkscape:cy="532.29515"
     inkscape:document-units="px"
     inkscape:current-layer="layer1"
     showgrid="false"
     inkscape:window-width="1280"
     inkscape:window-height="746"
     inkscape:window-x="-8"
     inkscape:window-y="-8"
     inkscape:window-maximized="1" />
  <metadata
     id="metadata7">
    <rdf:RDF>
      <cc:Work
         rdf:about="">
        <dc:format>image/svg+xml</dc:format>
        <dc:type
           rdf:resource="http://purl.org/dc/dcmitype/StillImage" />
        <dc:title></dc:title>
      </cc:Work>
    </rdf:RDF>
  </metadata>
  <g
     inkscape:label="Camada 1"
     inkscape:groupmode="layer"
     id="layer1">
    <rect
       style="opacity:1;fill:#ffffff"
       id="rect3355"
       width="287.85715"
       height="287.85715"
       x="65.714287"
       y="400.21936"
       inkscape:export-xdpi="640.31769"
       inkscape:export-ydpi="640.31769" />
  </g>
  <g
     inkscape:groupmode="layer"
     id="layer2"
     inkscape:label="Camada 2">
    <path
       style="fill:#000000"
       d="m 165.47517,639.15665 0,-3 45,0 45,0 0,3 0,3 -45,0 -45,0 0,-3 z m -7,-12 0,-7 52,0 52,0 0,7 0,7 -52,0 -52,0 0,-7 z m 16.96017,2.54799 c 1.58974,-1.91552 0.44893,-5.28337 -2.05931,-6.07946 -3.77073,-1.19678 -6.52208,3.51025 -3.70086,6.33147 1.62807,1.62807 4.29674,1.51132 5.76017,-0.25201 z m 12.53983,-1.939 c 0,-3.59911 -2.63564,-5.57124 -4.91618,-3.67856 -1.62521,1.34881 -2.14249,5.17757 -0.87124,6.44881 0.39191,0.39192 1.85441,0.57942 3.25,0.41667 2.0632,-0.24061 2.53742,-0.83622 2.53742,-3.18692 z m 12.3,2.19101 c 1.79987,-1.79987 1.44655,-4.59768 -0.72756,-5.76123 -2.44244,-1.30715 -4.81709,-0.41868 -5.61699,2.1016 -1.18572,3.73587 3.54155,6.46263 6.34455,3.65963 z m 51.2,-2.3 c 0,-1.925 -0.45,-3.5 -1,-3.5 -0.55,0 -1,1.125 -1,2.5 0,2.47059 -0.1,2.5 -8.5,2.5 -8.4,0 -8.5,-0.0294 -8.5,-2.5 0,-1.375 -0.45,-2.5 -1,-2.5 -0.55,0 -1,1.575 -1,3.5 l 0,3.5 10.5,0 10.5,0 0,-3.5 z m -93,-41.5 0,-33 52,0 52,0 0,33 0,33 -52,0 -52,0 0,-33 z m 98,0 0,-27 -46,0 -46,0 0,27 0,27 46,0 46,0 0,-27 z m -89,0 0,-19 11.5,0 11.5,0 0,19 0,19 -11.5,0 -11.5,0 0,-19 z m 31,0 0,-19 11.5,0 11.5,0 0,19 0,19 -11.5,0 -11.5,0 0,-19 z m 31.66667,18.33333 c -0.36667,-0.36666 -0.66667,-8.91666 -0.66667,-19 l 0,-18.33333 12,0 12,0 0,19 0,19 -11.33333,0 c -6.23334,0 -11.63334,-0.3 -12,-0.66667 z m -71.66667,-85.33333 0,-33 52,0 52,0 0,33 0,33 -52,0 -52,0 0,-33 z m 98,0 0,-27 -46,0 -46,0 0,27 0,27 46,0 46,0 0,-27 z m -89,0 0,-19 11.5,0 11.5,0 0,19 0,19 -11.5,0 -11.5,0 0,-19 z m 31,0 0,-19 11.5,0 11.5,0 0,19 0,19 -11.5,0 -11.5,0 0,-19 z m 31.66667,18.33333 c -0.36667,-0.36666 -0.66667,-8.91666 -0.66667,-19 l 0,-18.33333 12,0 12,0 0,19 0,19 -11.33333,0 c -6.23334,0 -11.63334,-0.3 -12,-0.66667 z m 33.33333,-20.33333 c 0,-10 0,-10 2.5,-10 2.5,0 2.5,0 2.5,10 0,10 0,10 -2.5,10 -2.5,0 -2.5,0 -2.5,-10 z m 6,-0.55902 c 0,-4.7847 0.36702,-7.33218 1,-6.94098 1.37057,0.84706 1.3385,-22.7615 -0.0328,-24.13278 -1.60681,-1.60683 -0.006,-4.36722 2.5328,-4.36722 2.53872,0 4.13961,2.76039 2.53278,4.36722 -1.35068,1.35068 -1.38083,26.29964 -0.0328,27.13278 1.782,1.10134 1.12122,7.37878 -1,9.5 -3.91268,3.91268 -5,2.7038 -5,-5.55902 z m -111,-35.23088 c 0,-10.52767 6.28463,-24.33473 15.08,-33.1301 10.05132,-10.05132 22.36292,-15.08 36.92,-15.08 15.27156,0 27.03303,5.05161 37.43544,16.07871 8.87451,9.40745 14.56456,22.2883 14.56456,32.97051 l 0,2.95078 -52,0 -52,0 0,-3.7899 z"
       id="path3347"
       inkscape:connector-curvature="0"
       inkscape:export-xdpi="640.31769"
       inkscape:export-ydpi="640.31769" />
  </g>
</svg>
